<svg height='100px' width='100px'  fill="#000000" xmlns="http://www.w3.org/2000/svg" xmlns:xlink="http://www.w3.org/1999/xlink" version="1.1" x="0px" y="0px" viewBox="0 0 100 100" enable-background="new 0 0 100 100" xml:space="preserve"><path d="M50.2,88.1C29.2,88.1,12,70.9,12,49.8s17.1-38.2,38.2-38.2c21.1,0,38.2,17.1,38.2,38.2S71.3,88.1,50.2,88.1z M50.2,15.3  c-19,0-34.5,15.5-34.5,34.5s15.5,34.5,34.5,34.5s34.5-15.5,34.5-34.5S69.3,15.3,50.2,15.3z M60.2,64.1H40.3c-2.2,0-4-1.8-4-4V40.2  c0-2.2,1.8-4,4-4h19.9c2.2,0,4,1.8,4,4v19.9C64.2,62.3,62.4,64.1,60.2,64.1z M40.3,39.9c-0.2,0-0.3,0.1-0.3,0.3v19.9  c0,0.2,0.1,0.3,0.3,0.3h19.9c0.2,0,0.3-0.1,0.3-0.3V40.2c0-0.2-0.1-0.3-0.3-0.3H40.3z"></path></svg>